<?xml version="1.0" encoding="UTF-8"?>
<svg version="1.1" xmlns="http://www.w3.org/2000/svg" width="48" height="48">
<path d="M0 0 C1.79296875 0.76953125 1.79296875 0.76953125 2.79296875 1.76953125 C2.8808785 4.06104542 2.89990913 6.35525649 2.890625 8.6484375 C2.88921005 9.33509995 2.8877951 10.02176239 2.88633728 10.72923279 C2.88072354 12.93020926 2.86816882 15.13108534 2.85546875 17.33203125 C2.85045551 18.82096208 2.8458923 20.30989449 2.84179688 21.79882812 C2.83074968 25.455762 2.81347588 29.11263683 2.79296875 32.76953125 C-1.90332031 33.93994141 -1.90332031 33.93994141 -4.63671875 32.40625 C-5.84714844 31.44138672 -5.84714844 31.44138672 -7.08203125 30.45703125 C-11.18076493 27.36919601 -14.26710047 25.92568526 -19.20703125 24.76953125 C-20.50079703 22.18199969 -20.37535522 20.2199414 -20.39453125 17.33203125 C-20.40871094 16.36394531 -20.42289063 15.39585938 -20.4375 14.3984375 C-20.20703125 11.76953125 -20.20703125 11.76953125 -18.20703125 8.76953125 C-16.56501626 8.36740513 -14.92253528 7.96705103 -13.27734375 7.578125 C-9.74934529 6.20020862 -7.12908843 3.62229597 -4.3203125 1.1328125 C-2.20703125 -0.23046875 -2.20703125 -0.23046875 0 0 Z " fill="#3FBF56" transform="translate(26.20703125,7.23046875)"/>
<path d="M0 0 C1.32 0 2.64 0 4 0 C7.99447898 5.82528185 7.67780967 12.14369445 7 19 C6.24799553 21.40727869 5.43489828 22.90744 4 25 C2.68 24.67 1.36 24.34 0 24 C0.33 23.236875 0.66 22.47375 1 21.6875 C2.73366466 15.29461157 3.15093981 8.92676773 0 3 C0 2.01 0 1.02 0 0 Z " fill="#3FBF56" transform="translate(38,11)"/>
<path d="M0 0 C0.99 0.33 1.98 0.66 3 1 C3.92867074 3.78601223 4.16342217 5.61066089 4.1875 8.5 C4.20167969 9.2734375 4.21585938 10.046875 4.23046875 10.84375 C4 13 4 13 2 16 C1.01 16 0.02 16 -1 16 C-1.02685095 13.52076199 -1.04676547 11.0418116 -1.0625 8.5625 C-1.07506836 7.50192383 -1.07506836 7.50192383 -1.08789062 6.41992188 C-1.09653588 4.61306441 -1.05220011 2.80612397 -1 1 C-0.67 0.67 -0.34 0.34 0 0 Z " fill="#3FBF56" transform="translate(34,15)"/>
</svg>
